<mxfile host="app.diagrams.net" modified="2021-08-28T01:14:20.670Z" agent="5.0 (Windows NT 10.0; Win64; x64) AppleWebKit/537.36 (KHTML, like Gecko) Chrome/92.0.4515.159 Safari/537.36" etag="89oQCV9iCoIb92UVkJrE" version="15.0.3" type="github">
  <diagram id="C5RBs43oDa-KdzZeNtuy" name="Page-1">
    <mxGraphModel dx="2500" dy="929" grid="1" gridSize="10" guides="1" tooltips="1" connect="1" arrows="1" fold="1" page="1" pageScale="1" pageWidth="827" pageHeight="1169" math="0" shadow="0">
      <root>
        <mxCell id="WIyWlLk6GJQsqaUBKTNV-0" />
        <mxCell id="WIyWlLk6GJQsqaUBKTNV-1" parent="WIyWlLk6GJQsqaUBKTNV-0" />
        <mxCell id="WIyWlLk6GJQsqaUBKTNV-2" value="" style="rounded=0;html=1;jettySize=auto;orthogonalLoop=1;fontSize=11;endArrow=block;endFill=0;endSize=8;strokeWidth=1;shadow=0;labelBackgroundColor=none;edgeStyle=orthogonalEdgeStyle;" parent="WIyWlLk6GJQsqaUBKTNV-1" source="WIyWlLk6GJQsqaUBKTNV-3" edge="1">
          <mxGeometry relative="1" as="geometry">
            <mxPoint x="220" y="170" as="targetPoint" />
          </mxGeometry>
        </mxCell>
        <mxCell id="WIyWlLk6GJQsqaUBKTNV-3" value="Inicio" style="rounded=1;whiteSpace=wrap;html=1;fontSize=12;glass=0;strokeWidth=1;shadow=0;fillColor=#d5e8d4;strokeColor=#82b366;" parent="WIyWlLk6GJQsqaUBKTNV-1" vertex="1">
          <mxGeometry x="160" y="80" width="120" height="40" as="geometry" />
        </mxCell>
        <mxCell id="kJEndi_SnaoM2aSFTPPG-15" style="edgeStyle=orthogonalEdgeStyle;rounded=0;orthogonalLoop=1;jettySize=auto;html=1;exitX=0.5;exitY=1;exitDx=0;exitDy=0;" edge="1" parent="WIyWlLk6GJQsqaUBKTNV-1" source="kJEndi_SnaoM2aSFTPPG-46">
          <mxGeometry relative="1" as="geometry">
            <mxPoint x="219.41" y="250" as="sourcePoint" />
            <mxPoint x="219.41" y="270" as="targetPoint" />
          </mxGeometry>
        </mxCell>
        <mxCell id="kJEndi_SnaoM2aSFTPPG-24" style="edgeStyle=orthogonalEdgeStyle;rounded=0;orthogonalLoop=1;jettySize=auto;html=1;exitX=0;exitY=0.5;exitDx=0;exitDy=0;entryX=0.425;entryY=0;entryDx=0;entryDy=0;entryPerimeter=0;" edge="1" parent="WIyWlLk6GJQsqaUBKTNV-1" source="kJEndi_SnaoM2aSFTPPG-4" target="kJEndi_SnaoM2aSFTPPG-20">
          <mxGeometry relative="1" as="geometry" />
        </mxCell>
        <mxCell id="kJEndi_SnaoM2aSFTPPG-25" style="edgeStyle=orthogonalEdgeStyle;rounded=0;orthogonalLoop=1;jettySize=auto;html=1;exitX=0.5;exitY=1;exitDx=0;exitDy=0;entryX=0.5;entryY=0;entryDx=0;entryDy=0;" edge="1" parent="WIyWlLk6GJQsqaUBKTNV-1" source="kJEndi_SnaoM2aSFTPPG-4" target="kJEndi_SnaoM2aSFTPPG-21">
          <mxGeometry relative="1" as="geometry" />
        </mxCell>
        <mxCell id="kJEndi_SnaoM2aSFTPPG-26" style="edgeStyle=orthogonalEdgeStyle;rounded=0;orthogonalLoop=1;jettySize=auto;html=1;exitX=1;exitY=0.5;exitDx=0;exitDy=0;entryX=0.5;entryY=0;entryDx=0;entryDy=0;" edge="1" parent="WIyWlLk6GJQsqaUBKTNV-1" source="kJEndi_SnaoM2aSFTPPG-4" target="kJEndi_SnaoM2aSFTPPG-19">
          <mxGeometry relative="1" as="geometry" />
        </mxCell>
        <mxCell id="kJEndi_SnaoM2aSFTPPG-4" value="Efectivo, tarjeta o cheque?" style="rhombus;whiteSpace=wrap;html=1;" vertex="1" parent="WIyWlLk6GJQsqaUBKTNV-1">
          <mxGeometry x="150" y="380" width="140" height="110" as="geometry" />
        </mxCell>
        <mxCell id="kJEndi_SnaoM2aSFTPPG-16" style="edgeStyle=orthogonalEdgeStyle;rounded=0;orthogonalLoop=1;jettySize=auto;html=1;entryX=0.5;entryY=0;entryDx=0;entryDy=0;" edge="1" parent="WIyWlLk6GJQsqaUBKTNV-1" target="kJEndi_SnaoM2aSFTPPG-4">
          <mxGeometry relative="1" as="geometry">
            <mxPoint x="220" y="310" as="sourcePoint" />
          </mxGeometry>
        </mxCell>
        <mxCell id="kJEndi_SnaoM2aSFTPPG-29" style="edgeStyle=orthogonalEdgeStyle;rounded=0;orthogonalLoop=1;jettySize=auto;html=1;exitX=0.5;exitY=1;exitDx=0;exitDy=0;entryX=1;entryY=0.5;entryDx=0;entryDy=0;" edge="1" parent="WIyWlLk6GJQsqaUBKTNV-1" source="kJEndi_SnaoM2aSFTPPG-19" target="kJEndi_SnaoM2aSFTPPG-27">
          <mxGeometry relative="1" as="geometry" />
        </mxCell>
        <mxCell id="kJEndi_SnaoM2aSFTPPG-19" value="Cheque" style="rounded=0;whiteSpace=wrap;html=1;" vertex="1" parent="WIyWlLk6GJQsqaUBKTNV-1">
          <mxGeometry x="295" y="520" width="120" height="60" as="geometry" />
        </mxCell>
        <mxCell id="kJEndi_SnaoM2aSFTPPG-30" style="edgeStyle=orthogonalEdgeStyle;rounded=0;orthogonalLoop=1;jettySize=auto;html=1;exitX=0.5;exitY=1;exitDx=0;exitDy=0;entryX=0;entryY=0.5;entryDx=0;entryDy=0;" edge="1" parent="WIyWlLk6GJQsqaUBKTNV-1" source="kJEndi_SnaoM2aSFTPPG-20" target="kJEndi_SnaoM2aSFTPPG-27">
          <mxGeometry relative="1" as="geometry" />
        </mxCell>
        <mxCell id="kJEndi_SnaoM2aSFTPPG-20" value="Efectivo" style="rounded=0;whiteSpace=wrap;html=1;" vertex="1" parent="WIyWlLk6GJQsqaUBKTNV-1">
          <mxGeometry x="25" y="520" width="120" height="60" as="geometry" />
        </mxCell>
        <mxCell id="kJEndi_SnaoM2aSFTPPG-28" style="edgeStyle=orthogonalEdgeStyle;rounded=0;orthogonalLoop=1;jettySize=auto;html=1;exitX=0.5;exitY=1;exitDx=0;exitDy=0;" edge="1" parent="WIyWlLk6GJQsqaUBKTNV-1" source="kJEndi_SnaoM2aSFTPPG-21" target="kJEndi_SnaoM2aSFTPPG-27">
          <mxGeometry relative="1" as="geometry" />
        </mxCell>
        <mxCell id="kJEndi_SnaoM2aSFTPPG-21" value="Tarjeta" style="rounded=0;whiteSpace=wrap;html=1;" vertex="1" parent="WIyWlLk6GJQsqaUBKTNV-1">
          <mxGeometry x="160" y="520" width="120" height="60" as="geometry" />
        </mxCell>
        <mxCell id="kJEndi_SnaoM2aSFTPPG-32" style="edgeStyle=orthogonalEdgeStyle;rounded=0;orthogonalLoop=1;jettySize=auto;html=1;exitX=0.5;exitY=1;exitDx=0;exitDy=0;entryX=0.5;entryY=0;entryDx=0;entryDy=0;" edge="1" parent="WIyWlLk6GJQsqaUBKTNV-1" source="kJEndi_SnaoM2aSFTPPG-27" target="kJEndi_SnaoM2aSFTPPG-31">
          <mxGeometry relative="1" as="geometry" />
        </mxCell>
        <mxCell id="kJEndi_SnaoM2aSFTPPG-27" value="Validar pago" style="rounded=0;whiteSpace=wrap;html=1;" vertex="1" parent="WIyWlLk6GJQsqaUBKTNV-1">
          <mxGeometry x="160" y="620" width="120" height="60" as="geometry" />
        </mxCell>
        <mxCell id="kJEndi_SnaoM2aSFTPPG-41" style="edgeStyle=orthogonalEdgeStyle;rounded=0;orthogonalLoop=1;jettySize=auto;html=1;exitX=0;exitY=0.5;exitDx=0;exitDy=0;entryX=0;entryY=0.5;entryDx=0;entryDy=0;" edge="1" parent="WIyWlLk6GJQsqaUBKTNV-1" source="kJEndi_SnaoM2aSFTPPG-31" target="kJEndi_SnaoM2aSFTPPG-4">
          <mxGeometry relative="1" as="geometry">
            <Array as="points">
              <mxPoint y="750" />
              <mxPoint y="435" />
            </Array>
          </mxGeometry>
        </mxCell>
        <mxCell id="kJEndi_SnaoM2aSFTPPG-44" style="edgeStyle=orthogonalEdgeStyle;rounded=0;orthogonalLoop=1;jettySize=auto;html=1;exitX=0.5;exitY=1;exitDx=0;exitDy=0;entryX=0.5;entryY=0;entryDx=0;entryDy=0;" edge="1" parent="WIyWlLk6GJQsqaUBKTNV-1" source="kJEndi_SnaoM2aSFTPPG-31" target="kJEndi_SnaoM2aSFTPPG-35">
          <mxGeometry relative="1" as="geometry" />
        </mxCell>
        <mxCell id="kJEndi_SnaoM2aSFTPPG-31" value="El pago fue validado?" style="rhombus;whiteSpace=wrap;html=1;" vertex="1" parent="WIyWlLk6GJQsqaUBKTNV-1">
          <mxGeometry x="180" y="710" width="80" height="80" as="geometry" />
        </mxCell>
        <mxCell id="kJEndi_SnaoM2aSFTPPG-45" style="edgeStyle=orthogonalEdgeStyle;rounded=0;orthogonalLoop=1;jettySize=auto;html=1;exitX=0.5;exitY=1;exitDx=0;exitDy=0;entryX=0.5;entryY=0;entryDx=0;entryDy=0;" edge="1" parent="WIyWlLk6GJQsqaUBKTNV-1" source="kJEndi_SnaoM2aSFTPPG-35" target="kJEndi_SnaoM2aSFTPPG-43">
          <mxGeometry relative="1" as="geometry" />
        </mxCell>
        <mxCell id="kJEndi_SnaoM2aSFTPPG-35" value="Preparar el pedido" style="rounded=0;whiteSpace=wrap;html=1;" vertex="1" parent="WIyWlLk6GJQsqaUBKTNV-1">
          <mxGeometry x="160" y="830" width="120" height="60" as="geometry" />
        </mxCell>
        <mxCell id="kJEndi_SnaoM2aSFTPPG-36" value="SI" style="text;html=1;strokeColor=none;fillColor=none;align=center;verticalAlign=middle;whiteSpace=wrap;rounded=0;" vertex="1" parent="WIyWlLk6GJQsqaUBKTNV-1">
          <mxGeometry x="210" y="790" width="40" height="20" as="geometry" />
        </mxCell>
        <mxCell id="kJEndi_SnaoM2aSFTPPG-38" value="No" style="text;html=1;strokeColor=none;fillColor=none;align=center;verticalAlign=middle;whiteSpace=wrap;rounded=0;" vertex="1" parent="WIyWlLk6GJQsqaUBKTNV-1">
          <mxGeometry x="140" y="730" width="40" height="20" as="geometry" />
        </mxCell>
        <mxCell id="kJEndi_SnaoM2aSFTPPG-43" value="Fin" style="rounded=1;whiteSpace=wrap;html=1;fillColor=#f8cecc;strokeColor=#b85450;" vertex="1" parent="WIyWlLk6GJQsqaUBKTNV-1">
          <mxGeometry x="160" y="920" width="120" height="60" as="geometry" />
        </mxCell>
        <mxCell id="kJEndi_SnaoM2aSFTPPG-46" value="&#xa;&#xa;&lt;span style=&quot;color: rgb(0, 0, 0); font-family: helvetica; font-size: 12px; font-style: normal; font-weight: 400; letter-spacing: normal; text-align: center; text-indent: 0px; text-transform: none; word-spacing: 0px; background-color: rgb(248, 249, 250); display: inline; float: none;&quot;&gt;Ingreso de productos&lt;/span&gt;&#xa;&#xa;" style="rounded=0;whiteSpace=wrap;html=1;" vertex="1" parent="WIyWlLk6GJQsqaUBKTNV-1">
          <mxGeometry x="160" y="170" width="120" height="60" as="geometry" />
        </mxCell>
        <mxCell id="kJEndi_SnaoM2aSFTPPG-47" value="&lt;span&gt;Elegir metodo de pago&lt;/span&gt;" style="rounded=0;whiteSpace=wrap;html=1;" vertex="1" parent="WIyWlLk6GJQsqaUBKTNV-1">
          <mxGeometry x="160" y="270" width="120" height="60" as="geometry" />
        </mxCell>
      </root>
    </mxGraphModel>
  </diagram>
</mxfile>
